logo.svg
<svg width="502" height="200" viewBox="0 0 502 200" fill="none" xmlns="http://www.w3.org/2000/svg">
<path fill-rule="evenodd" clip-rule="evenodd" d="M71.4529 194.691L72.1267 195.082C83.0675 201.427 100.853 201.437 111.812 195.082L164.096 164.762C175.037 158.418 183.939 143.025 183.939 130.405V99.9222V69.4391C183.939 56.8089 175.055 41.437 164.096 35.082L111.812 4.76238C100.871 -1.58222 83.0856 -1.5927 72.1267 4.76238L19.8428 35.082C8.90198 41.4265 0 56.8338 0 69.4715V70.8812C0 75.0852 3.00473 76.7687 6.60867 74.7002L33.8587 59.0599C37.5082 56.9653 42.1878 58.2307 44.2947 61.8587L48.1348 68.4707C50.249 72.1111 48.9858 76.7708 45.3061 78.8828L12.1583 97.9081C8.48191 100.018 7.20053 104.654 9.33 108.321L17.0014 121.53C19.1158 125.171 23.8172 126.407 27.4406 124.328L50.7243 110.964C54.3753 108.868 59.0562 110.133 61.1632 113.761L65.0032 120.373C67.1174 124.013 65.8439 128.679 62.2205 130.759L38.9368 144.122C35.2858 146.218 34.025 150.842 36.1544 154.509L43.8258 167.718C45.9402 171.359 50.6313 172.601 54.311 170.489L87.4587 151.464C91.1352 149.354 95.8366 150.607 97.9436 154.235L101.784 160.847C103.898 164.487 102.659 169.133 99.0037 171.231L71.4557 187.042C67.7937 189.144 67.795 192.57 71.4529 194.691Z" fill="#FAC337"/>
<path fill-rule="evenodd" clip-rule="evenodd" d="M283.655 64.7619L279.823 76.1905H252.937V95.2381H275.977V106.667H252.937V125.714H279.823L283.655 137.143H237.588V64.7619H283.655ZM357.827 115.375C356.085 119.799 353.62 123.627 350.434 126.859C347.247 130.091 343.414 132.613 338.933 134.425C334.452 136.237 329.473 137.143 323.996 137.143C318.553 137.143 313.59 136.237 309.109 134.425C304.628 132.613 300.786 130.091 297.583 126.859C294.38 123.627 291.899 119.799 290.14 115.375C288.381 110.951 287.501 106.143 287.501 100.952C287.501 95.7613 288.381 90.9539 290.14 86.5301C291.899 82.1062 294.38 78.2783 297.583 75.0461C300.786 71.8139 304.628 69.2918 309.109 67.4799C313.59 65.6679 318.553 64.7619 323.996 64.7619C327.647 64.7619 331.083 65.1782 334.302 66.0107C337.522 66.8432 340.476 68.0186 343.165 69.5367C345.853 71.0548 348.268 72.8994 350.409 75.0706C352.55 77.2417 354.367 79.6658 355.861 82.3429C357.355 85.0201 358.491 87.9258 359.271 91.06C360.051 94.1942 360.441 97.4917 360.441 100.952C360.441 106.143 359.57 110.951 357.827 115.375ZM323.971 125.714C337.546 125.714 344.885 114.628 344.885 100.952C344.885 87.2768 337.546 76.1905 323.971 76.1905C310.397 76.1905 302.733 87.2768 302.733 100.952C302.733 114.628 310.397 125.714 323.971 125.714ZM387.038 110.413V137.143H371.71V76.1905L368.836 64.7619H394.163C398.534 64.7619 421.527 64.7619 421.527 87.619C421.527 101.905 411.012 106.053 408.114 106.667C410.031 107.143 427.275 137.143 427.275 137.143H411.947C411.947 137.143 398.534 110.413 392.786 110.413H387.038ZM387.038 79.0476V99.0476H395.525C398.025 99.0476 408.114 98.1905 408.114 87.619C408.114 77.0476 400.426 76.1905 395.525 76.1905H386.08L387.038 79.0476ZM502 137.143H486.672L480.924 118.095H454.099L448.351 137.143H433.023L459.847 64.7619H475.176L502 137.143ZM456.973 107.619L460.805 106.667H477.092L467.511 76.1905L456.973 107.619Z" fill="white"/>
<path d="M490.134 47.036H488.315V52H486.7V40.287H489.777C491.239 40.287 492.344 40.5647 493.092 41.12C493.851 41.6753 494.231 42.5027 494.231 43.602C494.231 44.418 494.021 45.081 493.602 45.591C493.183 46.101 492.548 46.4863 491.698 46.747L494.86 52H492.939L490.134 47.036ZM489.947 45.795C490.797 45.795 491.437 45.625 491.868 45.285C492.299 44.9337 492.514 44.3727 492.514 43.602C492.514 42.8767 492.293 42.3553 491.851 42.038C491.42 41.7093 490.723 41.545 489.76 41.545H488.315V45.795H489.947Z" fill="white"/>
<circle cx="490" cy="46" r="10" stroke="white" stroke-width="2"/>
</svg>
