<svg width="259" height="243" viewBox="0 0 259 243" fill="none" xmlns="http://www.w3.org/2000/svg">
<g opacity="0.9">
<path d="M169.545 76.4602C169.545 74.7389 169.466 73.085 169.32 71.3524L183.53 65.8283C182.66 59.5202 181.008 53.3449 178.613 47.4445L163.56 49.7621C162.099 46.6789 160.387 43.7212 158.441 40.919L167.97 29.0495C164.041 24.0117 159.507 19.4772 154.469 15.5486L142.6 25.0892C139.794 23.1392 136.832 21.4233 133.745 19.9589L136.063 4.90533C130.163 2.51295 123.987 0.865143 117.679 0L112.155 14.1985C110.479 14.0635 108.78 13.9735 107.058 13.9735C105.337 13.9735 103.683 14.0635 101.951 14.1985L96.4715 0.033752C90.1636 0.898895 83.9881 2.5467 78.0878 4.93909L80.4054 19.9926C77.3206 21.4546 74.3627 23.1707 71.5623 25.123L59.6815 15.5823C54.6437 19.511 50.1092 24.0455 46.1806 29.0832L55.755 40.919C53.8087 43.7212 52.0965 46.6789 50.6359 49.7621L35.5824 47.4445C33.1877 53.3449 31.5361 59.5202 30.6658 65.8283L44.8755 71.3524C44.7405 73.04 44.6505 74.7276 44.6505 76.4602C44.6505 78.1928 44.7405 79.8355 44.8755 81.5681L30.6658 87.0922C31.5361 93.4003 33.1877 99.5756 35.5824 105.476L50.6359 103.158C52.0954 106.249 53.8076 109.215 55.755 112.024L46.2256 123.893C50.1513 128.934 54.6861 133.469 59.7265 137.394L71.5623 127.775C74.3627 129.727 77.3206 131.443 80.4054 132.905L78.0878 148.026C83.9877 150.423 90.1632 152.074 96.4715 152.943L101.996 138.733C103.683 138.868 105.371 138.958 107.104 138.958C108.836 138.958 110.479 138.868 112.2 138.733L117.724 152.943C124.033 152.074 130.208 150.423 136.108 148.026L133.79 132.973C136.877 131.508 139.839 129.792 142.645 127.842L154.514 137.383C159.555 133.457 164.089 128.923 168.015 123.882L158.441 112.024C160.387 109.222 162.099 106.264 163.56 103.181L178.613 105.498C181.008 99.5981 182.66 93.4228 183.53 87.1147L169.32 81.5906C169.466 79.8805 169.545 78.1816 169.545 76.4602Z" fill="#FFD336"/>
<path d="M147.73 92.5488H198.46C206.41 92.5488 214.282 94.1147 221.627 97.1572C228.972 100.2 235.646 104.659 241.268 110.281C246.89 115.902 251.349 122.576 254.392 129.921C257.434 137.267 259 145.139 259 153.089C259 161.039 257.434 168.912 254.392 176.257C251.349 183.602 246.89 190.276 241.268 195.898C235.646 201.519 228.972 205.979 221.627 209.021C214.282 212.064 206.41 213.63 198.46 213.63H87.1895V153.089C87.1895 137.033 93.5678 121.634 104.921 110.281C116.275 98.9272 131.674 92.5488 147.73 92.5488Z" fill="#FFD336"/>
<path d="M168.532 132.365C165.389 132.365 162.373 131.124 160.139 128.912C157.906 126.7 156.636 123.695 156.607 120.552C156.681 117.361 158.014 114.329 160.316 112.117C162.618 109.906 165.701 108.696 168.893 108.75C170.445 108.742 171.984 109.043 173.419 109.633C174.855 110.223 176.16 111.092 177.258 112.189C178.357 113.287 179.227 114.591 179.819 116.026C180.41 117.461 180.712 119 180.706 120.552C180.684 122.127 180.351 123.683 179.727 125.13C179.103 126.577 178.2 127.886 177.069 128.984C175.939 130.081 174.603 130.944 173.138 131.525C171.673 132.105 170.108 132.391 168.532 132.365ZM158.171 199.127V137.901L179.119 135.977V199.127H158.171Z" fill="#FFD336"/>
<path d="M154.908 119.022C155.29 117.222 155.605 115.399 155.864 113.554L141.654 108.041C141.789 106.354 141.879 104.666 141.879 102.933C141.879 101.201 141.789 99.5581 141.654 97.8254L155.864 92.3013C155.01 85.9949 153.373 79.8195 150.993 73.9176L135.939 76.2352C134.453 73.1494 132.714 70.1917 130.741 67.3921L140.282 55.5113C136.356 50.4709 131.821 45.9361 126.781 42.0104L114.99 51.5848C112.188 49.6385 109.23 47.9263 106.147 46.4657L108.465 31.4121C102.556 29.0234 96.3732 27.3794 90.0584 26.5181L84.5343 40.7053C82.8467 40.5703 81.1591 40.4803 79.4265 40.4803C77.6939 40.4803 76.0512 40.5703 74.3186 40.7053L68.7945 26.5181C62.4874 27.3812 56.3121 29.0252 50.4107 31.4121L52.7284 46.4657C49.6451 47.9263 46.6874 49.6385 43.8853 51.5848L32.0157 42.0554C26.9779 45.984 22.4435 50.5185 18.5148 55.5563L28.0555 67.4371C26.1056 70.239 24.3896 73.1967 22.9251 76.2802L7.90533 73.9176C5.51295 79.8179 3.86514 85.9934 3 92.3013L17.1985 97.8254C17.0635 99.5131 16.9735 101.201 16.9735 102.933C16.9735 104.666 17.0635 106.309 17.1985 108.041L3 113.554C3.86652 119.865 5.51427 126.044 7.90533 131.949L22.9589 129.62C24.4233 132.707 26.1392 135.669 28.0892 138.474L18.5486 150.344C22.4772 155.382 27.0117 159.916 32.0495 163.845L43.919 154.316C46.7212 156.262 49.6789 157.974 52.7622 159.435L50.4107 174.443C53.3448 175.636 56.3509 176.643 59.4114 177.458" stroke="white" stroke-width="4" stroke-miterlimit="10"/>
<path d="M70.9547 144.201C62.4648 142.453 54.7213 138.127 48.781 131.815C42.8406 125.502 38.9929 117.511 37.763 108.93C36.5331 100.35 37.9809 91.5991 41.9088 83.8722C45.8367 76.1452 52.0533 69.8186 59.7102 65.7557C67.3671 61.6929 76.0911 60.0918 84.6917 61.171C93.2923 62.2503 101.35 65.9572 107.766 71.7859C114.182 77.6145 118.642 85.281 120.539 93.7389C122.436 102.197 121.677 111.034 118.365 119.044" stroke="white" stroke-width="4" stroke-miterlimit="10"/>
<path d="M120.064 119.022H170.794C186.843 119.025 202.233 125.4 213.583 136.746C224.933 148.092 231.314 163.48 231.323 179.529V179.529C231.323 195.585 224.945 210.984 213.591 222.337C202.238 233.691 186.839 240.069 170.783 240.069H59.5239V179.529C59.5239 163.472 65.9023 148.074 77.2558 136.72C88.6093 125.366 104.008 118.988 120.064 118.988V119.022Z" stroke="white" stroke-width="4" stroke-miterlimit="10"/>
<path d="M140.867 158.838C137.723 158.839 134.707 157.598 132.474 155.385C130.24 153.173 128.971 150.168 128.941 147.025C129.018 143.832 130.353 140.799 132.657 138.586C134.96 136.373 138.045 135.16 141.238 135.212C142.791 135.206 144.329 135.507 145.764 136.099C147.2 136.691 148.504 137.561 149.601 138.659C150.698 139.758 151.567 141.062 152.157 142.498C152.748 143.934 153.048 145.473 153.04 147.025C153.018 148.601 152.686 150.156 152.062 151.603C151.438 153.05 150.535 154.359 149.404 155.457C148.273 156.554 146.937 157.417 145.472 157.998C144.007 158.578 142.442 158.864 140.867 158.838V158.838ZM130.505 225.589V164.374L151.476 162.45V225.589H130.505Z" stroke="white" stroke-width="4" stroke-miterlimit="10"/>
</g>
</svg>
