<svg width="30" height="95" viewBox="0 0 30 95" fill="none" xmlns="http://www.w3.org/2000/svg">
<path d="M14.8669 25.8384C11.7234 25.8385 8.70695 24.5975 6.47363 22.3853C4.24032 20.173 2.97077 17.1685 2.94112 14.0251C3.01788 10.832 4.35343 7.79866 6.65678 5.58592C8.96014 3.37319 12.0446 2.16039 15.2382 2.21177C16.7907 2.20581 18.329 2.50738 19.7643 3.09908C21.1996 3.69079 22.5035 4.56091 23.6008 5.65921C24.6981 6.75751 25.5669 8.06227 26.1573 9.49815C26.7476 10.934 27.0477 12.4726 27.0403 14.0251C27.0183 15.6006 26.6858 17.1562 26.0618 18.603C25.4378 20.0498 24.5346 21.3594 23.4039 22.4567C22.2731 23.554 20.9371 24.4175 19.4722 24.9977C18.0073 25.578 16.4424 25.8637 14.8669 25.8384V25.8384ZM4.50497 92.5892V31.3738L25.4764 29.4499V92.5892H4.50497Z" stroke="white" stroke-width="4" stroke-miterlimit="10"/>
</svg>
