<svg width="154" height="153" viewBox="0 0 154 153" fill="none" xmlns="http://www.w3.org/2000/svg">
<path d="M139.545 76.4602C139.545 74.7389 139.466 73.085 139.32 71.3524L153.53 65.8283C152.659 59.5202 151.008 53.3449 148.613 47.4445L133.56 49.7621C132.099 46.6789 130.387 43.7212 128.441 40.919L137.97 29.0495C134.041 24.0117 129.507 19.4772 124.469 15.5486L112.6 25.0892C109.794 23.1392 106.832 21.4233 103.745 19.9589L106.063 4.90533C100.163 2.51295 93.987 0.865143 87.6791 0L82.155 14.1985C80.4786 14.0635 78.7798 13.9735 77.0584 13.9735C75.337 13.9735 73.6832 14.0635 71.9505 14.1985L66.4714 0.033752C60.1635 0.898895 53.988 2.5467 48.0877 4.93909L50.4053 19.9926C47.3205 21.4546 44.3626 23.1707 41.5622 25.123L29.6814 15.5823C24.6436 19.511 20.1091 24.0455 16.1805 29.0832L25.7549 40.919C23.8086 43.7212 22.0964 46.6789 20.6358 49.7621L5.58226 47.4445C3.18757 53.3449 1.53604 59.5202 0.665672 65.8283L14.8754 71.3524C14.7404 73.04 14.6504 74.7276 14.6504 76.4602C14.6504 78.1928 14.7404 79.8355 14.8754 81.5681L0.665672 87.0922C1.53604 93.4003 3.18757 99.5756 5.58226 105.476L20.6358 103.158C22.0954 106.249 23.8075 109.215 25.7549 112.024L16.2255 123.893C20.1512 128.934 24.686 133.469 29.7264 137.394L41.5622 127.775C44.3626 129.727 47.3205 131.443 50.4053 132.905L48.0877 148.026C53.9876 150.423 60.1631 152.074 66.4714 152.943L71.9955 138.733C73.6832 138.868 75.3708 138.958 77.1034 138.958C78.836 138.958 80.4786 138.868 82.2 138.733L87.7241 152.943C94.0325 152.074 100.208 150.423 106.108 148.026L103.79 132.973C106.877 131.508 109.839 129.792 112.645 127.842L124.514 137.383C129.555 133.457 134.089 128.923 138.015 123.882L128.441 112.024C130.387 109.222 132.099 106.264 133.56 103.181L148.613 105.498C151.008 99.5981 152.659 93.4228 153.53 87.1147L139.32 81.5906C139.466 79.8805 139.545 78.1816 139.545 76.4602Z" fill="#FFD336"/>
</svg>
