<svg width="172" height="122" viewBox="0 0 172 122" fill="none" xmlns="http://www.w3.org/2000/svg">
<path d="M60.7299 0.548828H111.46C119.41 0.548828 127.282 2.11475 134.627 5.15719C141.973 8.19963 148.646 12.659 154.268 18.2807C159.89 23.9024 164.349 30.5763 167.392 37.9214C170.434 45.2665 172 53.1389 172 61.0892C172 69.0395 170.434 76.9119 167.392 84.257C164.349 91.6021 159.89 98.276 154.268 103.898C148.646 109.519 141.973 113.979 134.627 117.021C127.282 120.064 119.41 121.63 111.46 121.63H0.189529V61.0892C0.189529 45.0329 6.56787 29.6342 17.9214 18.2807C29.2749 6.92717 44.6736 0.548828 60.7299 0.548828Z" fill="#FFD336"/>
</svg>
