<svg width="159" height="156" viewBox="0 0 159 156" fill="none" xmlns="http://www.w3.org/2000/svg">
<path d="M154.908 95.0219C155.29 93.2218 155.605 91.3991 155.864 89.554L141.654 84.0411C141.789 82.3535 141.879 80.6659 141.879 78.9333C141.879 77.2007 141.789 75.5581 141.654 73.8254L155.864 68.3013C155.01 61.9949 153.373 55.8195 150.993 49.9176L135.939 52.2352C134.453 49.1494 132.714 46.1917 130.741 43.3921L140.282 31.5113C136.356 26.4709 131.821 21.9361 126.781 18.0104L114.99 27.5848C112.188 25.6385 109.23 23.9263 106.147 22.4657L108.465 7.41215C102.556 5.02337 96.3732 3.37937 90.0584 2.51807L84.5343 16.7053C82.8467 16.5703 81.1591 16.4803 79.4265 16.4803C77.6939 16.4803 76.0512 16.5703 74.3186 16.7053L68.7945 2.51807C62.4874 3.3812 56.3121 5.02517 50.4107 7.41215L52.7284 22.4657C49.6451 23.9263 46.6874 25.6385 43.8853 27.5848L32.0157 18.0554C26.9779 21.984 22.4435 26.5185 18.5148 31.5563L28.0555 43.4371C26.1056 46.239 24.3896 49.1967 22.9251 52.2802L7.90533 49.9176C5.51295 55.8179 3.86514 61.9934 3 68.3013L17.1985 73.8254C17.0635 75.5131 16.9735 77.2007 16.9735 78.9333C16.9735 80.6659 17.0635 82.3085 17.1985 84.0411L3 89.554C3.86652 95.8653 5.51427 102.044 7.90533 107.949L22.9589 105.62C24.4233 108.707 26.1392 111.669 28.0892 114.474L18.5486 126.344C22.4772 131.382 27.0117 135.916 32.0495 139.845L43.919 130.316C46.7212 132.262 49.6789 133.974 52.7622 135.435L50.4107 150.443C53.3448 151.636 56.3509 152.643 59.4114 153.458" stroke="white" stroke-width="4" stroke-miterlimit="10"/>
</svg>
